<?xml version="1.0" standalone="no"?>
<!DOCTYPE svg PUBLIC "-//W3C//DTD SVG 20010904//EN"
 "http://www.w3.org/TR/2001/REC-SVG-20010904/DTD/svg10.dtd">
<svg version="1.0" xmlns="http://www.w3.org/2000/svg"
 width="511.000000pt" height="403.000000pt" viewBox="0 0 511.000000 403.000000"
 preserveAspectRatio="xMidYMid meet">

<g transform="translate(0.000000,403.000000) scale(0.100000,-0.100000)"
fill="#000000" stroke="none">
<path d="M1854 3441 c-96 -44 -164 -151 -164 -259 0 -80 34 -170 131 -347 39
-71 82 -151 95 -176 21 -40 33 -49 100 -79 57 -25 94 -51 150 -105 l75 -71 9
-140 c11 -172 3 -244 -50 -454 -55 -222 -73 -274 -140 -415 -40 -85 -54 -125
-47 -135 6 -10 1 -37 -16 -80 l-24 -65 -69 -23 c-38 -12 -144 -47 -236 -76
l-167 -54 16 32 c9 17 50 91 91 165 110 197 209 404 238 499 54 170 18 326
-102 453 -98 102 -241 154 -358 131 -208 -42 -365 -229 -366 -437 0 -134 105
-372 364 -823 20 -35 36 -66 36 -68 0 -2 -140 -4 -311 -4 l-311 0 4 -134 c4
-192 -27 -176 340 -174 293 2 299 2 303 22 3 12 6 77 8 146 l2 124 240 79 240
78 232 -1 c214 -1 232 1 236 17 15 52 16 80 3 104 l-13 26 194 62 c108 34 196
61 198 59 1 -2 10 -27 20 -56 14 -44 20 -52 36 -47 17 6 19 1 19 -47 0 -29 3
-70 6 -91 l7 -37 76 0 c65 0 89 5 158 35 45 19 100 39 122 45 60 16 68 81 16
130 -24 22 -25 23 -68 6 -59 -22 -93 -21 -111 6 -10 13 -12 26 -7 31 6 6 1 28
-10 55 -11 24 -17 47 -14 50 3 3 205 70 448 147 l442 142 78 139 c96 170 180
339 207 418 45 132 17 270 -74 361 -74 74 -133 100 -226 100 -97 0 -168 -33
-239 -110 -78 -86 -105 -194 -77 -306 19 -72 96 -239 187 -402 34 -60 59 -110
57 -112 -2 -3 -258 116 -569 264 l-564 268 -17 46 c-9 25 -20 68 -24 96 l-7
51 36 -15 c73 -30 90 -15 127 118 7 26 18 47 25 47 6 0 45 -11 85 -25 40 -14
78 -25 84 -25 6 0 21 35 33 78 32 113 82 240 107 268 11 14 38 31 58 38 l38
12 -125 53 -125 52 -35 -27 c-19 -15 -49 -48 -67 -75 -17 -27 -39 -51 -48 -54
-15 -5 -76 -140 -107 -240 -12 -38 -39 -39 -66 -3 -13 18 -21 48 -25 97 l-5
71 32 0 c38 0 39 6 3 45 -15 16 -39 54 -52 82 l-23 53 49 53 c27 29 54 61 60
72 10 19 11 19 60 0 27 -11 52 -21 56 -23 5 -2 8 7 8 19 0 14 -17 41 -42 66
-39 40 -42 46 -39 91 2 36 -2 54 -16 67 -30 31 -96 55 -150 55 -49 0 -53 -2
-91 -46 -37 -41 -46 -46 -96 -51 -35 -4 -57 -11 -60 -20 -9 -22 -1 -30 49 -49
l45 -17 0 -54 c0 -58 1 -58 -57 -36 -9 4 -11 -11 -7 -59 l5 -63 -84 -70 c-72
-59 -86 -76 -91 -107 -7 -42 -79 -275 -88 -283 -6 -7 -118 46 -118 55 0 4 35
69 77 146 42 76 93 177 112 224 31 74 36 95 36 165 0 62 -5 89 -22 120 -26 51
-100 119 -149 140 -50 21 -149 19 -200 -4z m-24 -75 c0 -2 -8 -10 -17 -17 -16
-13 -17 -12 -4 4 13 16 21 21 21 13z m153 -43 c-13 -2 -33 -2 -45 0 -13 2 -3
4 22 4 25 0 35 -2 23 -4z m-73 -7 c0 -2 -7 -7 -16 -10 -8 -3 -12 -2 -9 4 6 10
25 14 25 6z m-40 -19 c0 -2 -10 -12 -22 -23 l-23 -19 19 23 c18 21 26 27 26
19z m205 -17 c10 -11 16 -20 13 -20 -3 0 -13 9 -23 20 -10 11 -16 20 -13 20 3
0 13 -9 23 -20z m-44 -39 c64 -65 20 -171 -71 -171 -90 0 -135 107 -73 172 39
40 103 40 144 -1z m-224 -83 c-2 -13 -4 -5 -4 17 -1 22 1 32 4 23 2 -10 2 -28
0 -40z m310 -5 c-3 -10 -5 -2 -5 17 0 19 2 27 5 18 2 -10 2 -26 0 -35z m-262
-93 c10 -11 16 -20 13 -20 -3 0 -13 9 -23 20 -10 11 -16 20 -13 20 3 0 13 -9
23 -20z m235 17 c0 -2 -10 -12 -22 -23 l-23 -19 19 23 c18 21 26 27 26 19z
m-185 -55 c-3 -3 -11 0 -18 7 -9 10 -8 11 6 5 10 -3 15 -9 12 -12z m73 -9
c-10 -2 -26 -2 -35 0 -10 3 -2 5 17 5 19 0 27 -2 18 -5z m1915 -360 c-7 -2
-19 -2 -25 0 -7 3 -2 5 12 5 14 0 19 -2 13 -5z m54 1 c-3 -3 -12 -4 -19 -1 -8
3 -5 6 6 6 11 1 17 -2 13 -5z m159 -86 l29 -33 -32 29 c-31 28 -38 36 -30 36
2 0 16 -15 33 -32z m-306 -61 c0 -2 -10 -12 -22 -23 l-23 -19 19 23 c18 21 26
27 26 19z m165 -31 c88 -37 99 -162 19 -225 -19 -15 -41 -21 -75 -21 -42 0
-55 5 -85 33 -65 59 -56 162 19 207 38 24 75 25 122 6z m-328 -128 c-2 -13 -4
-3 -4 22 0 25 2 35 4 23 2 -13 2 -33 0 -45z m90 0 c-3 -7 -5 -2 -5 12 0 14 2
19 5 13 2 -7 2 -19 0 -25z m59 -120 l29 -33 -32 29 c-31 28 -38 36 -30 36 2 0
16 -15 33 -32z m274 19 c0 -2 -10 -12 -22 -23 l-23 -19 19 23 c18 21 26 27 26
19z m-763 -275 c297 -141 536 -260 530 -263 -16 -9 -804 -259 -814 -259 -18 0
-136 306 -204 525 -38 125 -75 237 -80 248 -10 17 -9 19 7 13 11 -4 263 -123
561 -264z m-1834 221 c-7 -2 -19 -2 -25 0 -7 3 -2 5 12 5 14 0 19 -2 13 -5z
m2465 -20 c-10 -2 -26 -2 -35 0 -10 3 -2 5 17 5 19 0 27 -2 18 -5z m162 -83
c-11 -22 -23 -40 -25 -40 -3 0 4 18 15 40 11 22 23 40 25 40 3 0 -4 -18 -15
-40z m-2541 -154 c100 -70 107 -205 15 -286 -105 -91 -264 -38 -295 99 -35
157 147 279 280 187z m1021 -107 c34 -45 72 -101 86 -125 21 -36 104 -282 108
-322 1 -9 -88 -42 -259 -97 -143 -47 -265 -85 -272 -85 -7 0 -10 7 -6 15 3 9
14 15 25 13 18 -3 27 20 83 197 88 280 160 485 170 485 3 0 32 -37 65 -81z
m1345 -57 c-3 -3 -11 0 -18 7 -9 10 -8 11 6 5 10 -3 15 -9 12 -12z m-2285
-135 c0 -2 -10 -12 -22 -23 l-23 -19 19 23 c18 21 26 27 26 19z m-340 -876 c0
-37 -20 -41 -196 -41 -133 0 -134 0 -140 24 -3 14 -3 30 1 35 4 7 66 11 171
11 l164 0 0 -29z"/>
<path d="M1710 895 l0 -35 -75 0 -75 0 0 -60 0 -60 228 2 227 3 3 58 3 57 -76
0 -75 0 0 35 0 35 -80 0 -80 0 0 -35z"/>
<path d="M2070 560 l0 -351 73 3 72 3 3 153 3 152 24 0 c13 0 35 4 49 10 24 9
26 15 26 65 l0 55 -50 0 -50 0 0 130 0 130 -75 0 -75 0 0 -350z"/>
<path d="M2380 850 l0 -60 128 0 c70 0 133 -4 141 -9 11 -7 12 -23 5 -83 l-9
-73 -132 -3 -133 -3 0 -64 0 -65 121 0 121 0 -7 -32 c-4 -18 -20 -73 -36 -123
-15 -49 -27 -90 -26 -90 1 -1 26 -11 56 -23 61 -25 84 -27 99 -9 14 16 68 201
77 260 l7 47 69 0 69 0 0 -155 0 -156 78 3 77 3 3 348 2 347 -80 0 -80 0 0
-135 0 -135 -58 0 -57 0 3 114 c6 163 17 156 -238 156 l-200 0 0 -60z"/>
<path d="M3200 726 l0 -185 26 -20 c19 -15 41 -21 73 -21 62 1 187 24 235 44
21 9 40 16 42 16 2 0 4 -16 4 -35 l0 -35 58 0 c32 0 63 5 70 12 9 9 12 69 12
210 l0 198 -70 0 -70 0 0 -35 0 -35 -60 0 -60 0 0 -60 0 -60 61 0 c56 0 60 -1
57 -22 -4 -27 -89 -60 -163 -62 l-50 -1 -3 138 -3 137 -79 0 -80 0 0 -184z"/>
<path d="M3760 700 l0 -210 58 0 c31 0 64 5 72 10 12 8 16 45 18 210 l3 200
-75 0 -76 0 0 -210z"/>
<path d="M4010 580 c0 -410 -17 -375 179 -367 127 6 276 29 294 46 6 6 -9 108
-17 118 -1 2 -18 -2 -37 -7 -19 -6 -76 -17 -128 -25 -127 -20 -131 -17 -131
85 l0 79 123 3 122 3 3 63 3 62 -126 0 -125 0 0 75 0 74 143 3 142 3 3 58 3
57 -226 0 -225 0 0 -330z"/>
<path d="M4550 775 l0 -135 -40 0 -40 0 0 -65 0 -65 40 0 40 0 0 -150 0 -151
78 3 77 3 3 348 2 347 -80 0 -80 0 0 -135z"/>
<path d="M1687 686 c-49 -18 -76 -43 -93 -83 -34 -80 -4 -162 73 -198 34 -16
42 -25 43 -47 l0 -28 -80 0 -80 0 0 -60 0 -60 238 2 237 3 3 58 3 57 -86 0
c-84 0 -85 0 -85 25 0 18 9 29 38 44 63 33 85 64 89 129 5 71 -17 112 -79 143
-54 28 -166 36 -221 15z m157 -128 c14 -23 -2 -50 -38 -63 -51 -18 -106 34
-75 71 17 21 98 15 113 -8z"/>
<path d="M760 495 l0 -54 148 -3 147 -3 3 -47 3 -48 63 0 c72 0 86 10 86 62
l0 37 138 3 137 3 3 53 3 52 -365 0 -366 0 0 -55z"/>
<path d="M3230 400 l0 -60 253 -2 252 -3 3 -84 3 -83 74 4 c40 2 77 7 82 11 4
5 9 69 11 143 l4 134 -341 0 -341 0 0 -60z"/>
<path d="M802 311 c5 -140 -18 -131 338 -131 333 0 310 -6 310 76 l0 44 -244
0 -244 0 -6 23 c-3 12 -6 34 -6 50 l0 27 -76 0 -76 0 4 -89z"/>
</g>
</svg>
